<svg width="256" height="256" viewBox="0 0 256 256" fill="none" xmlns="http://www.w3.org/2000/svg">
<g clip-path="url(#clip0)">
<rect width="256" height="256" fill="#222222"/>
<path d="M72.137 93.499C72.7923 93.5646 73.3166 93.6301 73.8409 93.6956C73.8409 102.477 73.8409 111.193 73.8409 120.04C72.7923 120.04 71.6127 120.04 70.302 120.04C70.1709 121.023 70.1054 121.941 69.9088 122.793C68.4015 128.363 62.3723 131.378 56.2776 129.674C51.166 128.167 48.0859 124.759 47.365 119.516C46.7096 114.601 48.7412 110.735 52.8043 107.851C53.2631 107.523 53.6563 107.261 53.9839 107.065C52.2145 105.361 50.314 103.919 48.8723 102.084C44.4159 96.5136 45.2679 88.715 50.5762 83.8655C55.95 78.9504 64.0762 78.6883 68.9258 83.2757C71.5471 85.766 72.7923 88.7806 72.2025 92.385C72.137 92.7126 72.137 93.0403 72.137 93.499ZM63.8796 93.2369C63.0277 92.5816 62.1757 92.2539 61.4549 93.368C60.8651 94.2855 61.4549 95.5961 62.5689 96.0549C63.2243 96.317 63.9452 96.3826 64.666 96.317C66.6976 96.0549 68.2049 94.4165 68.5326 92.4505C69.1224 89.0427 67.6151 86.2247 64.535 84.6519C60.7995 82.7514 56.0155 83.5378 52.8699 86.4869C49.7897 89.3704 48.8067 94.1544 50.6417 98.2175C51.8213 100.839 53.7218 102.805 56.2121 104.247C58.768 105.688 61.4549 105.557 64.2073 105.23C64.2073 106.54 64.2073 107.72 64.2073 108.572C62.0447 108.703 59.9476 108.572 57.9815 109.031C53.7218 109.948 50.8383 113.749 50.8383 118.009C50.8383 122.072 53.5252 125.48 57.4573 126.528C61.7825 127.642 65.9767 125.349 66.8287 121.417C67.484 118.468 65.0592 115.65 62.3723 116.108C61.1272 116.305 60.3408 117.026 60.7995 118.205C60.9961 118.73 62.0447 118.861 63.0277 119.385C63.2243 120.434 62.5689 121.351 61.0617 121.548C59.0301 121.81 57.2607 120.303 57.1296 118.271C56.933 114.929 60.3408 112.111 63.8141 112.701C66.9597 113.225 68.8602 115.191 70.1054 118.468C70.1054 111.193 70.1054 104.378 70.1054 97.3656C69.5156 97.8243 69.1224 98.152 68.7292 98.4797C64.4694 101.691 58.7024 99.7903 57.5883 94.8097C56.933 91.9262 59.4888 89.3048 62.2413 89.9602C63.8796 90.2879 64.535 91.533 63.8796 93.2369Z" fill="white"/>
<path d="M147.829 97.6277C148.026 96.9724 148.026 95.8583 148.55 95.4651C149.336 94.8098 150.516 94.351 151.434 94.4165C154.12 94.6787 155.628 97.4311 154.841 100.184C153.531 104.968 147.633 106.606 143.766 103.133C140.62 100.315 139.899 96.6447 141.21 92.7127C143.307 86.2903 148.222 83.0791 154.579 81.8995C164.54 80.0645 174.436 86.2248 177.057 95.9894C178.958 102.936 177.713 109.489 173.322 115.256C169.128 120.761 163.23 121.875 156.807 121.089C156.807 112.635 156.807 104.247 156.807 95.7272C157.921 95.7272 159.167 95.7272 160.477 95.7272C160.477 102.936 160.477 110.145 160.477 117.485C163.426 117.943 165.982 117.026 168.21 115.256C171.487 112.766 173.256 109.293 173.846 105.295C174.764 99.004 173.519 93.368 168.407 89.1083C161.919 83.7344 151.696 84.2587 146.65 90.2879C144.618 92.7782 143.832 95.5962 144.946 98.6763C145.666 100.773 147.633 101.822 149.467 101.167C150.057 100.97 150.844 100.446 150.975 99.8559C151.171 99.2661 151.04 98.0865 150.647 97.8243C150.057 97.3656 149.074 97.6277 147.829 97.6277Z" fill="white"/>
<path d="M90.9454 111.652C90.9454 110.472 90.9454 109.358 90.9454 108.244C93.8944 108.244 96.8434 108.31 99.727 108.244C100.841 108.244 100.972 108.834 100.907 109.686C100.317 115.387 95.4017 120.04 89.7002 120.368C81.9016 120.827 75.6103 115.256 75.2826 107.196C75.0205 100.052 80.3288 93.6956 88.0618 93.368C90.5521 93.2369 93.108 94.0233 95.6638 94.4165C95.9915 96.2515 96.2536 97.8898 96.5813 99.9869C94.3531 97.8243 92.0594 96.9068 89.4381 96.8413C86.8167 96.7757 84.523 97.5622 82.557 99.3316C79.1492 102.281 78.1006 106.868 79.9356 111.062C81.705 115.125 85.3094 117.288 89.8968 116.895C93.1735 116.633 96.1226 114.404 96.7779 111.718C94.8119 111.652 92.9769 111.652 90.9454 111.652Z" fill="white"/>
<path d="M102.152 93.6957C103.397 93.6957 104.642 93.6957 105.953 93.6957C105.953 98.4797 105.953 103.264 105.953 108.048C108.443 108.048 110.802 108.048 113.293 108.048C113.293 103.264 113.293 98.5452 113.293 93.6957C114.538 93.6957 115.848 93.6957 117.094 93.6957C117.094 102.412 117.094 111.128 117.094 119.909C115.914 119.909 114.538 119.909 113.293 119.909C113.293 117.157 113.293 114.405 113.293 111.587C110.868 111.587 108.443 111.587 105.953 111.587C105.953 114.405 105.953 117.157 105.953 119.975C104.708 119.975 103.397 119.975 102.152 119.975C102.152 111.259 102.152 102.543 102.152 93.6957Z" fill="white"/>
<path d="M176.664 119.975C178.958 111.193 181.252 102.543 183.611 93.6957C184.659 93.6957 186.036 93.6957 187.15 93.6957C189.509 102.477 191.803 111.259 194.096 119.975C192.982 119.975 191.672 119.975 190.361 119.975C190.295 119.909 190.164 119.778 190.164 119.713C189.968 115.256 189.968 115.256 185.577 115.256C185.315 115.256 185.053 115.256 184.79 115.256C181.252 115.256 180.4 116.239 180.727 119.975C179.286 119.975 177.844 119.975 176.664 119.975ZM188.329 111.849C187.412 107.654 186.625 103.591 185.773 99.5282C185.642 99.5282 185.511 99.5282 185.38 99.5282C184.463 103.591 183.48 107.654 182.497 111.849C184.397 111.849 186.167 111.849 188.329 111.849Z" fill="white"/>
<path d="M209.759 93.6957C207.334 99.004 204.975 104.312 202.616 109.621C202.288 110.341 202.485 111.259 202.485 112.045C202.485 114.667 202.485 117.288 202.485 119.975C201.371 119.975 200.06 119.975 198.946 119.975C198.946 116.96 198.946 114.011 198.946 111.062C198.946 110.669 198.815 110.21 198.684 109.817C196.652 105.23 194.621 100.577 192.524 95.9894C192.196 95.2685 191.737 94.6132 191.213 93.7612C192.786 93.7612 194.293 93.7612 195.342 93.7612C197.111 98.0865 198.749 102.215 200.388 106.344C200.519 106.344 200.65 106.344 200.781 106.344C202.419 102.215 204.647 98.2831 205.761 93.7612C206.941 93.6957 208.448 93.6957 209.759 93.6957Z" fill="white"/>
<path d="M124.761 97.2345C122.795 97.2345 120.895 97.2345 118.863 97.2345C119.06 96.0549 119.256 94.8753 119.453 93.6301C124.302 93.6301 129.086 93.6301 133.936 93.6301C134.132 94.8097 134.329 95.9894 134.526 97.2345C132.494 97.2345 130.659 97.2345 128.628 97.2345C128.628 104.771 128.628 112.373 128.628 119.975C127.382 119.975 126.006 119.975 124.827 119.975C124.761 112.373 124.761 104.771 124.761 97.2345Z" fill="white"/>
<path d="M139.304 138.234C140.287 138.168 141.532 138.43 141.794 138.037C142.188 137.316 142.319 136.136 141.991 135.416C141.205 133.45 137.862 132.663 135.7 134.105C134.193 135.153 132.685 136.595 131.964 138.234C130.392 142.1 129.081 146.163 128.032 150.226C126.132 157.501 124.428 164.84 122.658 172.18C122.462 173.098 122.396 174.081 122.265 175.129C120.299 175.129 118.333 175.129 116.629 175.129C115.777 171.525 114.991 168.052 114.205 164.644C114.073 164.644 113.877 164.644 113.746 164.578C112.894 168.052 112.107 171.525 111.19 175.129C109.617 175.129 107.52 175.129 105.816 175.129C105.03 171.853 104.374 168.707 103.588 165.627C101.687 158.222 99.7214 150.882 97.8209 143.476C97.5588 142.362 97.1656 141.969 95.9204 142.166C92.3816 142.821 89.2359 144.197 86.9422 147.081C85.0417 149.505 84.3208 152.192 85.3039 155.207C85.9592 157.107 87.4665 158.09 89.3015 157.894C89.4325 157.894 89.6947 157.894 89.7602 157.828C90.35 157.238 91.1364 156.78 91.3986 156.059C91.5952 155.6 91.202 154.486 90.8088 154.289C90.219 154.027 89.367 154.289 88.2529 154.355C88.384 153.765 88.3185 152.717 88.8427 152.323C89.6291 151.668 90.8743 151.078 91.8573 151.144C94.5442 151.34 96.0515 154.289 95.1996 157.107C94.4787 159.598 92.8403 161.105 90.2845 161.498C87.2044 161.957 84.6485 160.974 82.8791 158.418C80.3888 154.748 80.5854 150.816 82.617 147.015C85.6316 141.248 93.1025 137.578 99.918 138.43C100.442 138.496 100.967 138.561 101.556 138.692C101.032 142.166 102.539 145.246 103.326 148.457C105.03 155.6 106.865 162.743 108.962 169.887C109.486 167.79 110.01 165.758 110.535 163.661C110.862 162.35 111.059 160.974 111.518 159.729C112.304 157.501 111.649 155.469 111.124 153.372C110.272 150.161 109.486 146.95 108.634 143.804C108.175 142.1 107.52 140.462 106.93 138.758C108.569 138.758 110.272 138.758 111.518 138.758C112.304 142.231 113.09 145.508 113.811 148.85C113.942 148.85 114.073 148.85 114.205 148.85C114.925 145.573 115.646 142.297 116.433 138.758C117.678 138.758 119.316 138.758 120.627 138.758C119.12 144.525 117.547 150.357 116.039 156.19C115.908 156.649 116.105 157.238 116.171 157.763C117.154 161.76 118.202 165.758 119.513 169.756C119.906 168.052 120.365 166.413 120.758 164.709C122.593 157.107 124.428 149.44 126.328 141.838C127.115 138.692 128.491 135.678 130.719 133.187C133.537 130.107 137.797 128.993 141.598 130.435C145.137 131.746 147.103 135.547 145.858 138.627C145.137 140.527 143.302 141.641 141.532 141.445C139.697 141.183 138.78 139.675 139.304 138.234Z" fill="white"/>
<path d="M169.647 146.556C170.761 146.556 172.399 146.556 174.037 146.556C171.744 150.292 169.581 153.896 167.287 157.566C166.763 158.353 166.632 159.008 167.156 159.925C169.45 164.185 171.678 168.445 173.972 172.77C172.399 172.77 170.761 172.77 169.122 172.77C169.057 172.18 169.188 171.459 168.926 170.935C167.615 168.052 166.173 165.168 164.797 162.285C161.52 165.299 161.651 168.969 162.176 172.836C160.865 172.836 159.554 172.836 158.244 172.836C158.244 164.12 158.244 155.404 158.244 146.622C159.423 146.622 160.734 146.622 162.045 146.622C162.045 151.013 162.045 155.469 162.045 159.86C162.11 159.925 162.241 159.925 162.307 159.991C164.732 155.6 167.091 151.275 169.647 146.556Z" fill="white"/>
<path d="M135.176 150.095C135.176 153.7 135.176 157.239 135.176 160.908C137.142 160.908 138.977 160.908 140.943 160.908C140.943 162.023 140.943 163.333 140.943 164.578C139.042 164.578 137.142 164.578 135.176 164.578C135.176 166.151 135.176 167.724 135.176 169.428C137.731 169.428 140.287 169.428 142.974 169.428C142.843 170.411 142.712 171.459 142.515 172.508C142.45 172.705 141.991 172.967 141.663 172.967C138.256 173.032 134.782 172.967 131.375 172.967C131.375 164.12 131.375 155.469 131.375 146.622C134.782 146.622 138.256 146.622 141.926 146.622C142.122 147.736 142.319 148.916 142.515 150.095C140.091 150.095 137.731 150.095 135.176 150.095Z" fill="white"/>
<path d="M154.377 164.513C152.477 164.513 150.642 164.513 148.676 164.513C148.676 166.086 148.676 167.658 148.676 169.362C151.231 169.362 153.787 169.362 156.474 169.362C156.278 170.542 156.081 171.722 155.884 172.836C152.083 172.836 148.413 172.836 144.875 172.836C144.875 164.054 144.875 155.338 144.875 146.491C148.282 146.491 151.756 146.491 155.36 146.491C155.557 147.605 155.753 148.85 155.95 150.03C153.46 150.03 151.1 150.03 148.61 150.03C148.61 153.634 148.61 157.173 148.61 160.843C150.576 160.843 152.411 160.843 154.377 160.843C154.377 162.088 154.377 163.333 154.377 164.513Z" fill="white"/>
</g>
<defs>
<clipPath id="clip0">
<rect width="256" height="256" fill="white"/>
</clipPath>
</defs>
</svg>
